Coordinates
version=1
nRows=32
nColumns=22
inDegrees=yes

Units are S.I. units (second, meters, Newtons, ...)
If the header above contains a line with 'inDegrees', this indicates whether rotational values are in degrees (yes) or radians (no).

endheader
time	pelvis_tilt	pelvis_list	pelvis_rotation	pelvis_tx	pelvis_ty	pelvis_tz	hip_flexion_r	hip_adduction_r	hip_rotation_r	knee_angle_r	ankle_angle_r	subtalar_angle_r	hip_flexion_l	hip_adduction_l	hip_rotation_l	knee_angle_l	ankle_angle_l	subtalar_angle_l	lumbar_extension	lumbar_bending	lumbar_rotation
      2.88000000	      8.19928739	      9.60652753	    -77.20290334	      0.29071827	      0.89127410	     -0.34544346	     16.79309492	      9.59764100	     30.05876403	    -17.17331704	     -4.39732396	     -3.06644689	     33.45281501	    -13.43351441	     -1.74254452	    -91.25746229	      8.45106275	      6.18860557	     -3.67425560	     -3.32475383	      3.00885550
      2.89000000	      9.05616818	      9.58433036	    -80.91786886	      0.29082738	      0.89264785	     -0.34372598	     16.48856353	      9.46864562	     27.70838124	    -17.19302877	     -4.50174978	     -3.47385455	     33.38317627	    -13.47348773	     -1.41833025	    -91.12125521	      8.76081508	      4.71273148	     -3.41485138	     -4.11311678	      3.95613445
      2.90000000	      9.95702176	      9.47094745	    -84.64384507	      0.29085304	      0.89375535	     -0.34220247	     16.17336772	      9.28965286	     24.99648363	    -17.28457028	     -4.42464558	     -4.00353528	     33.16813266	    -13.41933961	     -1.15442134	    -90.92885912	      9.08756590	      3.48728465	     -3.13703549	     -4.92172746	      4.95135339
      2.91000000	     10.86773600	      9.26866063	    -88.36374276	      0.29082990	      0.89453269	     -0.34089611	     15.83001840	      9.06397372	     22.04955009	    -17.39411505	     -4.15033716	     -4.61462413	     32.84512676	    -13.28132960	     -0.92091638	    -90.69262665	      9.43878568	      2.53142846	     -2.83682348	     -5.71392233	      5.98253457
      2.92000000	     11.79225262	      8.99177697	    -92.08326431	      0.29076264	      0.89491701	     -0.33983815	     15.45883960	      8.77202207	     19.02000457	    -17.49005667	     -3.67781263	     -5.16452586	     32.44925648	    -13.04569410	     -0.72219241	    -90.41971919	      9.79313260	      1.93341306	     -2.50398834	     -6.50086522	      7.05628333
      2.93000000	     12.63991851	      8.64255755	    -95.79177724	      0.29063468	      0.89482757	     -0.33901767	     15.03360761	      8.50570333	     16.04501802	    -17.53406127	     -2.98431353	     -5.86307066	     32.00485021	    -12.80519101	     -0.51204134	    -90.13360132	     10.25660372	      1.40996594	     -2.14065427	     -7.18047987	      8.18053138
      2.94000000	     13.48074739	      8.27421213	    -99.50785969	      0.29051232	      0.89422400	     -0.33856624	     14.63426063	      8.19489776	     13.25732941	    -17.54554200	     -2.13357787	     -6.35893908	     31.59881480	    -12.48482296	     -0.32241425	    -89.84168267	     10.66511395	      1.18660012	     -1.71117314	     -7.82358524	      9.34960692
      2.95000000	     14.22184343	      7.88186651	   -103.23762174	      0.29034694	      0.89308949	     -0.33847754	     14.21773399	      7.95387290	     10.81219750	    -17.49091627	     -1.13239405	     -6.99489586	     31.22170621	    -12.20937936	     -0.12675432	    -89.55721496	     11.13723400	      0.97922882	     -1.24528684	     -8.32202558	     10.58810429
      2.96000000	     14.92358225	      7.52014426	   -106.98825082	      0.29022387	      0.89139638	     -0.33886019	     13.89468676	      7.73946026	      8.79122796	    -17.43703940	     -0.05634733	     -7.42623447	     30.96796786	    -11.93871887	      0.05713919	    -89.29026240	     11.55026268	      0.88040759	     -0.70073197	     -8.72481356	     11.87801571
      2.97000000	     15.51675924	      7.16211633	   -110.75450293	      0.29009961	      0.88923469	     -0.33968178	     13.58884912	      7.63318800	      7.31768300	    -17.35099578	      1.07413567	     -8.02761397	     30.78760095	    -11.76982301	      0.24699451	    -89.04110417	     11.97489826	      0.68489645	     -0.14673534	     -8.96056437	     13.21486771
      2.98000000	     16.04730649	      6.86450304	   -114.54911698	      0.29002446	      0.88658938	     -0.34099875	     13.39641553	      7.61947370	      6.48968799	    -17.28891530	      2.20675575	     -8.36633210	     30.75244055	    -11.69867659	      0.43440331	    -88.80677879	     12.36681595	      0.53588117	      0.46883783	     -9.05588921	     14.60318262
      2.99000000	     16.50454349	      6.56324678	   -118.34102863	      0.29001014	      0.88365623	     -0.34274397	     13.24503803	      7.68292080	      6.27643240	    -17.26473028	      3.30894977	     -8.80062331	     30.78378171	    -11.72237534	      0.62307995	    -88.56445334	     12.70641763	      0.25801016	      1.04818542	     -9.02772759	     15.98798275
      3.00000000	     16.88683045	      6.24544731	   -122.08225199	      0.29013932	      0.88054415	     -0.34484072	     13.12109187	      7.80509624	      6.62403289	    -17.30306660	      4.43936539	     -9.47047198	     30.87550429	    -11.81215585	      0.84925786	    -88.31202641	     13.01349699	     -0.32106651	      1.55097379	     -8.89169075	     17.30525574
      3.01000000	     17.20607204	      5.95378581	   -125.76157375	      0.29043249	      0.87727773	     -0.34726527	     13.03651870	      7.99118214	      7.55708597	    -17.35531542	      5.56060727	     -9.89255445	     31.07257054	    -11.98108056	      1.14187868	    -88.04512742	     13.29917691	     -0.80050543	      2.01454182	     -8.64837327	     18.56160438
      3.02000000	     17.45427010	      5.66027505	   -129.32253067	      0.29092493	      0.87398936	     -0.34989176	     12.93691650	      8.21420649	      8.93153593	    -17.40176406	      6.69136341	    -10.27373448	     31.34500046	    -12.19745761	      1.53196197	    -87.75158263	     13.59029261	     -1.35525512	      2.38828657	     -8.32052313	     19.68326934
      3.03000000	     17.63291238	      5.35958353	   -132.72531016	      0.29163357	      0.87075627	     -0.35261598	     12.79873846	      8.45061772	     10.62322018	    -17.42355938	      7.84052266	    -10.57435807	     31.69111566	    -12.43523878	      2.04454738	    -87.42326831	     13.88422617	     -1.95953611	      2.65746987	     -7.93063677	     20.63324037
      3.04000000	     17.74007037	      5.05129762	   -135.93958452	      0.29255457	      0.86764119	     -0.35533771	     12.59726302	      8.68327938	     12.50106768	    -17.39054851	      9.00731257	    -10.78561864	     32.10938378	    -12.67728876	      2.69180075	    -87.05310630	     14.18571473	     -2.61723238	      2.81436952	     -7.49431948	     21.38078849
      3.05000000	     17.77880531	      4.72851180	   -138.94645175	      0.29365453	      0.86468319	     -0.35796662	     12.31379072	      8.88975462	     14.44453736	    -17.28824704	     10.18023922	    -10.92333003	     32.59438552	    -12.90208481	      3.47451593	    -86.63766457	     14.48467717	     -3.32096233	      2.85994613	     -7.03664572	     21.92512498
      3.06000000	     17.75359136	      4.39678480	   -141.73722799	      0.29490689	      0.86191299	     -0.36043587	     11.94090588	      9.05931537	     16.35790644	    -17.09391940	     11.33265775	    -11.03382956	     33.14812642	    -13.10290849	      4.37740649	    -86.16715928	     14.78260244	     -4.04221337	      2.80344922	     -6.56637473	     22.25557539
      3.07000000	     17.67121053	      4.05125212	   -144.31634413	      0.29626940	      0.85935720	     -0.36271277	     11.47517633	      9.17840473	     18.17710259	    -16.80296200	     12.42863669	    -11.18539492	     33.76413868	    -13.27114977	      5.37284310	    -85.63234872	     15.07097331	     -4.73512727	      2.65203202	     -6.10258621	     22.39358777
      3.08000000	     17.53590969	      3.69385799	   -146.69944275	      0.29768171	      0.85703594	     -0.36477901	     10.91899466	      9.24696906	     19.87192592	    -16.41870252	     13.42994709	    -11.45321064	     34.43222076	    -13.41151862	      6.42180888	    -85.02539378	     15.34815755	     -5.39539514	      2.41963814	     -5.65196090	     22.35852173
      3.09000000	     17.35019942	      3.33062491	   -148.90631901	      0.29910834	      0.85495974	     -0.36664820	     10.29104006	      9.27312567	     21.42676081	    -15.97035328	     14.32307314	    -11.88768880	     35.14743888	    -13.53495292	      7.49227705	    -84.34176589	     15.60308111	     -6.01490256	      2.11653706	     -5.21546029	     22.18463744
      3.10000000	     17.12857003	      2.96445801	   -150.95929809	      0.30051164	      0.85314689	     -0.36834086	      9.60313827	      9.25089358	     22.86797137	    -15.45325610	     15.07905144	    -12.48058790	     35.90520442	    -13.64140336	      8.54919675	    -83.56779117	     15.82093099	     -6.59028181	      1.76147137	     -4.80222071	     21.90507820
      3.11000000	     16.88406566	      2.61155477	   -152.88691189	      0.30187899	      0.85159183	     -0.36988862	      8.89121761	      9.19314765	     24.21815426	    -14.89500532	     15.70693995	    -13.16190101	     36.71553312	    -13.74582895	      9.56583205	    -82.70710275	     15.99976397	     -7.09449435	      1.37766709	     -4.40368816	     21.56132590
      3.12000000	     16.62742079	      2.27808757	   -154.71265684	      0.30319475	      0.85031223	     -0.37132447	      8.17279265	      9.10022430	     25.51219177	    -14.30038660	     16.19573083	    -13.84661659	     37.57611723	    -13.85762331	     10.51626644	    -81.75341554	     16.14264427	     -7.49833572	      0.97704975	     -4.01930349	     21.18509729
      3.13000000	     16.36571418	      1.97033566	   -156.45492753	      0.30445667	      0.84932589	     -0.37267085	      7.46508928	      8.97478093	     26.77287886	    -13.67883635	     16.54968597	    -14.46520174	     38.48539055	    -13.98545841	     11.38209785	    -80.70677506	     16.25573930	     -7.77758639	      0.56579435	     -3.64515752	     20.80630623
      3.14000000	     16.10805304	      1.69348470	   -158.12723968	      0.30565758	      0.84864607	     -0.37392854	      6.78526225	      8.81809051	     28.01075784	    -13.03937016	     16.78039433	    -14.94864741	     39.44258851	    -14.13012152	     12.15452710	    -79.57133492	     16.33629877	     -7.92280755	      0.15489831	     -3.27841541	     20.44681890
      3.15000000	     15.84155934	      1.45308916	   -159.74067313	      0.30678476	      0.84829715	     -0.37512135	      6.14146379	      8.65150390	     29.21688702	    -12.41994167	     16.91544068	    -15.22338034	     40.42783383	    -14.31136890	     12.81851377	    -78.34977632	     16.38981748	     -7.95539694	     -0.27429036	     -2.90725260	     20.12653397
      3.16000000	     15.60733607	      1.24555187	   -161.28763520	      0.30786174	      0.84825757	     -0.37618092	      5.57212354	      8.45175609	     30.38178799	    -11.81357811	     16.93227617	    -15.27534994	     41.47283122	    -14.48086934	     13.39055542	    -77.05731868	     16.37632352	     -7.93553789	     -0.67756565	     -2.54544792	     19.84891153
      3.17000000	     15.32856492	      1.03932881	   -162.78169182	      0.30878939	      0.84863270	     -0.37712280	      4.99033828	      8.22736276	     31.49549589	    -11.23982101	     16.90967014	    -15.22279226	     42.45950653	    -14.65256509	     13.83682674	    -75.68714466	     16.33664198	     -7.86071042	     -1.15129097	     -2.19992532	     19.62665916
      3.18000000	     14.99660393	      0.79424860	   -164.21798915	      0.30953292	      0.84946233	     -0.37789162	      4.37529249	      7.93708301	     32.53191178	    -10.70380862	     16.88606715	    -14.94644862	     43.34060873	    -14.77126711	     14.14374550	    -74.23686593	     16.27109382	     -7.68389449	     -1.71509383	     -1.91324123	     19.45947479
      3.19000000	     14.68917467	      0.53481363	   -165.59673593	      0.31012851	      0.85059685	     -0.37847067	      3.82577306	      7.59091077	     33.48817678	    -10.22100613	     16.80873159	    -14.43311574	     44.21147558	    -14.82081565	     14.32459471	    -72.72808565	     16.15024439	     -7.50098316	     -2.26839961	     -1.68167171	     19.34377977
